<mxfile host="app.diagrams.net" modified="2020-07-28T11:22:02.620Z" agent="5.0 (Windows NT 10.0; Win64; x64) AppleWebKit/537.36 (KHTML, like Gecko) Chrome/84.0.4147.89 Safari/537.36" etag="ozRdoPgY79C2i7T9k9xp" version="13.5.4" type="github">
  <diagram id="7l1dg0tEb2V09woH2qkD" name="Page-1">
    <mxGraphModel dx="1284" dy="674" grid="1" gridSize="10" guides="1" tooltips="1" connect="1" arrows="1" fold="1" page="1" pageScale="1" pageWidth="1169" pageHeight="827" math="0" shadow="0">
      <root>
        <mxCell id="0" />
        <mxCell id="1" parent="0" />
        <mxCell id="96YwABl5tEflGrhusscS-23" style="rounded=0;orthogonalLoop=1;jettySize=auto;html=1;exitX=1;exitY=0.5;exitDx=0;exitDy=0;entryX=0;entryY=0.5;entryDx=0;entryDy=0;endArrow=none;endFill=0;strokeWidth=5;" edge="1" parent="1" source="96YwABl5tEflGrhusscS-2" target="96YwABl5tEflGrhusscS-4">
          <mxGeometry relative="1" as="geometry" />
        </mxCell>
        <mxCell id="96YwABl5tEflGrhusscS-26" style="edgeStyle=orthogonalEdgeStyle;curved=1;rounded=0;orthogonalLoop=1;jettySize=auto;html=1;exitX=0.5;exitY=0;exitDx=0;exitDy=0;entryX=0.5;entryY=1;entryDx=0;entryDy=0;endArrow=classic;endFill=1;strokeWidth=1;startArrow=none;startFill=0;" edge="1" parent="1" source="96YwABl5tEflGrhusscS-2" target="96YwABl5tEflGrhusscS-6">
          <mxGeometry relative="1" as="geometry" />
        </mxCell>
        <mxCell id="96YwABl5tEflGrhusscS-2" value="E" style="rounded=0;whiteSpace=wrap;html=1;fillColor=#f8cecc;strokeColor=#b85450;" vertex="1" parent="1">
          <mxGeometry x="524" y="190" width="120" height="60" as="geometry" />
        </mxCell>
        <mxCell id="96YwABl5tEflGrhusscS-9" style="edgeStyle=orthogonalEdgeStyle;rounded=0;orthogonalLoop=1;jettySize=auto;html=1;exitX=0.5;exitY=1;exitDx=0;exitDy=0;entryX=1;entryY=0.5;entryDx=0;entryDy=0;" edge="1" parent="1" source="96YwABl5tEflGrhusscS-3" target="96YwABl5tEflGrhusscS-7">
          <mxGeometry relative="1" as="geometry" />
        </mxCell>
        <mxCell id="96YwABl5tEflGrhusscS-10" style="edgeStyle=orthogonalEdgeStyle;rounded=0;orthogonalLoop=1;jettySize=auto;html=1;exitX=0.5;exitY=1;exitDx=0;exitDy=0;entryX=0;entryY=0.5;entryDx=0;entryDy=0;" edge="1" parent="1" source="96YwABl5tEflGrhusscS-3" target="96YwABl5tEflGrhusscS-8">
          <mxGeometry relative="1" as="geometry" />
        </mxCell>
        <mxCell id="96YwABl5tEflGrhusscS-3" value="A" style="rounded=0;whiteSpace=wrap;html=1;fillColor=#f8cecc;strokeColor=#b85450;" vertex="1" parent="1">
          <mxGeometry x="130" y="480" width="120" height="60" as="geometry" />
        </mxCell>
        <mxCell id="96YwABl5tEflGrhusscS-16" style="edgeStyle=orthogonalEdgeStyle;rounded=0;orthogonalLoop=1;jettySize=auto;html=1;exitX=0.5;exitY=1;exitDx=0;exitDy=0;entryX=0.5;entryY=0;entryDx=0;entryDy=0;" edge="1" parent="1" source="96YwABl5tEflGrhusscS-4" target="96YwABl5tEflGrhusscS-12">
          <mxGeometry relative="1" as="geometry" />
        </mxCell>
        <mxCell id="96YwABl5tEflGrhusscS-20" style="edgeStyle=orthogonalEdgeStyle;rounded=0;orthogonalLoop=1;jettySize=auto;html=1;exitX=0.5;exitY=0;exitDx=0;exitDy=0;entryX=0.5;entryY=1;entryDx=0;entryDy=0;" edge="1" parent="1" source="96YwABl5tEflGrhusscS-4" target="96YwABl5tEflGrhusscS-11">
          <mxGeometry relative="1" as="geometry" />
        </mxCell>
        <mxCell id="96YwABl5tEflGrhusscS-4" value="V" style="rounded=0;whiteSpace=wrap;html=1;fillColor=#f8cecc;strokeColor=#b85450;" vertex="1" parent="1">
          <mxGeometry x="920" y="480" width="120" height="60" as="geometry" />
        </mxCell>
        <mxCell id="96YwABl5tEflGrhusscS-27" style="edgeStyle=orthogonalEdgeStyle;curved=1;rounded=0;orthogonalLoop=1;jettySize=auto;html=1;exitX=1;exitY=0.5;exitDx=0;exitDy=0;entryX=0.5;entryY=0;entryDx=0;entryDy=0;startArrow=classic;startFill=1;endArrow=classic;endFill=1;strokeWidth=1;dashed=1;" edge="1" parent="1" source="96YwABl5tEflGrhusscS-6" target="96YwABl5tEflGrhusscS-11">
          <mxGeometry relative="1" as="geometry" />
        </mxCell>
        <mxCell id="96YwABl5tEflGrhusscS-6" value="Modell / Skelett" style="ellipse;whiteSpace=wrap;html=1;" vertex="1" parent="1">
          <mxGeometry x="524" y="50" width="120" height="80" as="geometry" />
        </mxCell>
        <mxCell id="96YwABl5tEflGrhusscS-7" value="Imagestreaming" style="ellipse;whiteSpace=wrap;html=1;" vertex="1" parent="1">
          <mxGeometry x="10" y="560" width="120" height="80" as="geometry" />
        </mxCell>
        <mxCell id="96YwABl5tEflGrhusscS-8" value="Virtual Reality" style="ellipse;whiteSpace=wrap;html=1;" vertex="1" parent="1">
          <mxGeometry x="250" y="560" width="120" height="80" as="geometry" />
        </mxCell>
        <mxCell id="96YwABl5tEflGrhusscS-11" value="Umsetzung" style="ellipse;whiteSpace=wrap;html=1;" vertex="1" parent="1">
          <mxGeometry x="920" y="350" width="120" height="80" as="geometry" />
        </mxCell>
        <mxCell id="96YwABl5tEflGrhusscS-17" style="edgeStyle=orthogonalEdgeStyle;rounded=0;orthogonalLoop=1;jettySize=auto;html=1;exitX=0;exitY=0.5;exitDx=0;exitDy=0;entryX=0.5;entryY=0;entryDx=0;entryDy=0;" edge="1" parent="1" source="96YwABl5tEflGrhusscS-12" target="96YwABl5tEflGrhusscS-13">
          <mxGeometry relative="1" as="geometry" />
        </mxCell>
        <mxCell id="96YwABl5tEflGrhusscS-18" style="edgeStyle=orthogonalEdgeStyle;rounded=0;orthogonalLoop=1;jettySize=auto;html=1;exitX=0.5;exitY=1;exitDx=0;exitDy=0;entryX=0.5;entryY=0;entryDx=0;entryDy=0;" edge="1" parent="1" source="96YwABl5tEflGrhusscS-12" target="96YwABl5tEflGrhusscS-14">
          <mxGeometry relative="1" as="geometry" />
        </mxCell>
        <mxCell id="96YwABl5tEflGrhusscS-19" style="edgeStyle=orthogonalEdgeStyle;rounded=0;orthogonalLoop=1;jettySize=auto;html=1;exitX=1;exitY=0.5;exitDx=0;exitDy=0;entryX=0.5;entryY=0;entryDx=0;entryDy=0;" edge="1" parent="1" source="96YwABl5tEflGrhusscS-12" target="96YwABl5tEflGrhusscS-15">
          <mxGeometry relative="1" as="geometry" />
        </mxCell>
        <mxCell id="96YwABl5tEflGrhusscS-12" value="Intelligente Fragen" style="ellipse;whiteSpace=wrap;html=1;" vertex="1" parent="1">
          <mxGeometry x="920" y="590" width="120" height="80" as="geometry" />
        </mxCell>
        <mxCell id="96YwABl5tEflGrhusscS-13" value="ABC-Listen" style="ellipse;whiteSpace=wrap;html=1;" vertex="1" parent="1">
          <mxGeometry x="800" y="700" width="120" height="80" as="geometry" />
        </mxCell>
        <mxCell id="96YwABl5tEflGrhusscS-14" value="KaWa&#39;s" style="ellipse;whiteSpace=wrap;html=1;" vertex="1" parent="1">
          <mxGeometry x="920" y="700" width="120" height="80" as="geometry" />
        </mxCell>
        <mxCell id="96YwABl5tEflGrhusscS-15" value="KaGa&#39;s" style="ellipse;whiteSpace=wrap;html=1;" vertex="1" parent="1">
          <mxGeometry x="1040" y="700" width="120" height="80" as="geometry" />
        </mxCell>
        <mxCell id="96YwABl5tEflGrhusscS-24" style="rounded=0;orthogonalLoop=1;jettySize=auto;html=1;exitX=0;exitY=0.5;exitDx=0;exitDy=0;entryX=1;entryY=0.5;entryDx=0;entryDy=0;endArrow=none;endFill=0;strokeWidth=5;" edge="1" parent="1" source="96YwABl5tEflGrhusscS-2" target="96YwABl5tEflGrhusscS-3">
          <mxGeometry relative="1" as="geometry">
            <mxPoint x="446" y="320" as="sourcePoint" />
            <mxPoint x="722" y="610" as="targetPoint" />
          </mxGeometry>
        </mxCell>
        <mxCell id="96YwABl5tEflGrhusscS-25" style="rounded=0;orthogonalLoop=1;jettySize=auto;html=1;exitX=0;exitY=0.5;exitDx=0;exitDy=0;endArrow=none;endFill=0;entryX=1;entryY=0.5;entryDx=0;entryDy=0;strokeWidth=5;" edge="1" parent="1" source="96YwABl5tEflGrhusscS-4" target="96YwABl5tEflGrhusscS-3">
          <mxGeometry relative="1" as="geometry">
            <mxPoint x="534" y="230" as="sourcePoint" />
            <mxPoint x="430" y="520" as="targetPoint" />
          </mxGeometry>
        </mxCell>
      </root>
    </mxGraphModel>
  </diagram>
</mxfile>
